<?xml version="1.0" encoding="utf-8"?>
<svg xmlns="http://www.w3.org/2000/svg"
	xmlns:xlink="http://www.w3.org/1999/xlink"
	width="1449px" height="66px" viewBox="0 0 1449 66">
<clipPath id="clip0"><rect x="-15" y="-668" width="1590" height="734"/></clipPath><g><rect x="-15" y="-668" width="1590" height="734" fill="rgb(54,54,54)"/><g clip-path="url(#clip0)"><rect x="300" y="-11" width="80" height="146" fill="rgb(241,107,79)"/><path fillRule="evenodd" d="M 315.41 68.99C 314.63 68.99 313.99 68.35 313.99 67.57 313.99 67.57 313.99-5.57 313.99-5.57 313.99-6.35 314.63-6.99 315.41-6.99 315.41-6.99 353.23-6.99 353.23-6.99 354.59-6.99 356.07-5.57 356.07-5.57 356.07-5.57 390.9 29.33 391.57 30 392.23 30.66 392.02 31.58 391.59 32.01 391.15 32.44 356.07 67.35 356.07 67.35 356.07 67.35 354.5 68.91 353.23 68.99 353.23 68.99 315.41 68.99 315.41 68.99Z" fill="rgb(241,107,79)"/></g></g></svg>